<svg xmlns="http://www.w3.org/2000/svg" viewBox="0 0 25 25">
  <defs>
    <style>
      .cls-1 {
        fill: #699228;
      }
    </style>
  </defs>
  <path id="plus-circle" class="cls-1" d="M20.5,8A12.5,12.5,0,1,0,33,20.5,12.5,12.5,0,0,0,20.5,8Zm7.258,13.911a.607.607,0,0,1-.6.6H22.516v4.637a.607.607,0,0,1-.6.6H19.089a.607.607,0,0,1-.6-.6V22.516H13.847a.607.607,0,0,1-.6-.6V19.089a.607.607,0,0,1,.6-.6h4.637V13.847a.607.607,0,0,1,.6-.6h2.823a.607.607,0,0,1,.6.6v4.637h4.637a.607.607,0,0,1,.6.6Z" transform="translate(-8 -8)"/>
</svg>
