<svg xmlns="http://www.w3.org/2000/svg" viewBox="0 0 30.473 22.076">
  <defs>
    <style>
      .cls-1 {
        fill: #fff;
      }
    </style>
  </defs>
  <g id="Batch-icon" transform="translate(-9.951 -145)">
    <path id="Path_384" data-name="Path 384" class="cls-1" d="M16.482,152.6v13.476a.981.981,0,0,0,1,1H34.761a.981.981,0,0,0,1-1V152.6a.981.981,0,0,0-1-1H17.486a1.03,1.03,0,0,0-1,1Zm2.009,1H33.757v11.467H18.49V153.6Zm-7.6,6.881h0a.981.981,0,0,0,1-1V147.006H28.167a1,1,0,1,0,0-2.006h-17.2a.981.981,0,0,0-1,1V159.48a.92.92,0,0,0,.933,1Zm3.3-12.185h0a.981.981,0,0,0-1,1v13.476a1,1,0,0,0,2.009,0V150.3H31.466a1,1,0,1,0,0-2.009Z" transform="translate(0)"/>
    <path id="Path_385" data-name="Path 385" class="cls-1" d="M337.38,258.313l-2.08,1.576a55.831,55.831,0,0,1,8.314,8.743s1.862-7.382,12.042-16.557L355.228,251s-5.948,2.8-12.9,11.542C342.252,262.542,340.461,260.748,337.38,258.313Z" transform="translate(-315.233 -102.704)"/>
  </g>
</svg>
