<svg xmlns="http://www.w3.org/2000/svg" viewBox="0 0 37.1 25">
  <defs>
    <style>
      .cls-1 {
        fill: #661c97;
      }
    </style>
  </defs>
  <g id="Batch-icon" transform="translate(-9.951 -145)">
    <path id="Path_384" data-name="Path 384" class="cls-1" d="M17.983,153.6v15.261A1.161,1.161,0,0,0,19.218,170H40.465a1.162,1.162,0,0,0,1.235-1.137V153.6a1.161,1.161,0,0,0-1.235-1.137H19.218a1.219,1.219,0,0,0-1.235,1.137Zm2.47,1.137H39.23v12.986H20.454V154.739Zm-9.346,7.792h0a1.162,1.162,0,0,0,1.235-1.137V147.271H32.354a1.14,1.14,0,1,0,0-2.271H11.2a1.162,1.162,0,0,0-1.235,1.137V161.4a1.08,1.08,0,0,0,1.147,1.134Zm4.057-13.8h0a1.162,1.162,0,0,0-1.235,1.137V165.13a1.239,1.239,0,0,0,2.47,0V151.007H36.412a1.141,1.141,0,1,0,0-2.275Z"/>
    <path id="Path_385" data-name="Path 385" class="cls-1" d="M337.469,257.6l-2.169,1.423a54.69,54.69,0,0,1,8.669,7.894s1.942-6.665,12.556-14.949l-.447-.971s-6.2,2.524-13.454,10.421C342.549,261.421,340.682,259.8,337.469,257.6Z" transform="translate(-309.474 -99.6)"/>
  </g>
</svg>
