<svg xmlns="http://www.w3.org/2000/svg" viewBox="0 0 22 25.143">
  <defs>
    <style>
      .cls-1 {
        fill: #535e64;
      }
    </style>
  </defs>
  <g id="bell" transform="translate(-1316 -21)">
    <path id="bell-2" data-name="bell" class="cls-1" d="M21.307,17.976c-1.093-1.093-2.45-2.452-2.45-7.762a7.859,7.859,0,0,0-6.564-7.751,1.571,1.571,0,1,0-2.587,0,7.859,7.859,0,0,0-6.564,7.751c0,5.309-1.357,6.669-2.45,7.762A2.359,2.359,0,0,0,2.36,22h5.5a3.143,3.143,0,1,0,6.286,0h5.5A2.359,2.359,0,0,0,21.307,17.976ZM11,23.179a.393.393,0,1,1,0,.786A1.967,1.967,0,0,1,9.036,22h.786A1.18,1.18,0,0,0,11,23.179Z" transform="translate(1316 21)"/>
  </g>
</svg>
