<svg xmlns="http://www.w3.org/2000/svg" xmlns:xlink="http://www.w3.org/1999/xlink" viewBox="0 0 155 43">
  <defs>
    <style>
      .cls-1 {
        fill: #b31717;
      }

      .cls-2, .cls-3 {
        fill: #fff;
      }

      .cls-2 {
        font-size: 14px;
        font-family: SegoeUI-Bold, Segoe UI;
        font-weight: 700;
      }

      .cls-4 {
        filter: url(#Rectangle_1536);
      }
    </style>
    <filter id="Rectangle_1536" x="0" y="0" width="155" height="43" filterUnits="userSpaceOnUse">
      <feOffset dy="3" input="SourceAlpha"/>
      <feGaussianBlur stdDeviation="3" result="blur"/>
      <feFlood flood-opacity="0.392"/>
      <feComposite operator="in" in2="blur"/>
      <feComposite in="SourceGraphic"/>
    </filter>
  </defs>
  <g id="Group_195" data-name="Group 195" transform="translate(-3885 92.667)">
    <g class="cls-4" transform="matrix(1, 0, 0, 1, 3885, -92.67)">
      <rect id="Rectangle_1536-2" data-name="Rectangle 1536" class="cls-1" width="137" height="25" rx="5" transform="translate(9 6)"/>
    </g>
    <g id="Group_194" data-name="Group 194" transform="translate(-0.5)">
      <g id="Group_67" data-name="Group 67" transform="translate(2609 -186.667)">
        <text id="CANCEL_EVENT" data-name="CANCEL EVENT" class="cls-2" transform="translate(1314 118)"><tspan x="0" y="0">CANCEL EVENT</tspan></text>
      </g>
      <path id="times-circle" class="cls-3" d="M16,8a8,8,0,1,0,8,8A8,8,0,0,0,16,8Zm3.923,10.1a.387.387,0,0,1,0,.548l-1.277,1.274a.387.387,0,0,1-.548,0L16,17.806l-2.1,2.116a.387.387,0,0,1-.548,0l-1.274-1.277a.387.387,0,0,1,0-.548L14.194,16l-2.116-2.1a.387.387,0,0,1,0-.548l1.277-1.277a.387.387,0,0,1,.548,0L16,14.194l2.1-2.116a.387.387,0,0,1,.548,0l1.277,1.277a.387.387,0,0,1,0,.548L17.806,16Z" transform="translate(3895.5 -90)"/>
    </g>
  </g>
</svg>
