<svg xmlns="http://www.w3.org/2000/svg" viewBox="0 0 28 25.372">
  <defs>
    <style>
      .cls-1 {
        fill: #535e64;
      }
    </style>
  </defs>
  <g id="chart-pie" transform="translate(-957 -23)">
    <path id="chart-pie-2" data-name="chart-pie" class="cls-1" d="M14.28.884v11.29H25.57a.6.6,0,0,0,.595-.63A11.9,11.9,0,0,0,14.909.289a.6.6,0,0,0-.63.595ZM27.4,14.554a.6.6,0,0,1,.595.63,11.854,11.854,0,0,1-3.034,7.328.6.6,0,0,1-.868.025l-7.983-7.983Zm-7.522,7.19a.592.592,0,0,1-.02.858A11.9,11.9,0,1,1,11.27,1.875a.6.6,0,0,1,.63.595V13.76Z" transform="translate(957 22.712)"/>
  </g>
</svg>
