<svg xmlns="http://www.w3.org/2000/svg" viewBox="0 0 20.572 16">
  <defs>
    <style>
      .cls-1 {
        fill: #535e64;
      }
    </style>
  </defs>
  <g id="Group_140" data-name="Group 140" transform="translate(-4311 75)">
    <path id="Path_373" data-name="Path 373" class="cls-1" d="M14.857,37.714c0-3.157-3.325-5.714-7.429-5.714S0,34.557,0,37.714A4.845,4.845,0,0,0,1.357,41,8.039,8.039,0,0,1,.079,42.946a.284.284,0,0,0-.054.311.28.28,0,0,0,.261.171,6.288,6.288,0,0,0,3.168-.893,9.088,9.088,0,0,0,3.975.893C11.532,43.429,14.857,40.871,14.857,37.714ZM1.482,42.621c-.1,0-.454.029-.493-.064s.282-.614.35-.686c.011-.011.218-.418.646-1.354A4.123,4.123,0,0,1,.768,37.675c0-2.732,2.982-4.946,6.661-4.946s6.661,2.214,6.661,4.946-2.982,4.946-6.661,4.946a8.439,8.439,0,0,1-3.564-.771A4.078,4.078,0,0,1,1.482,42.621Z" transform="translate(4311 -107)"/>
    <path id="Path_374" data-name="Path 374" class="cls-1" d="M189.218,180.475a4.838,4.838,0,0,0,1.357-3.286c0-2.389-1.911-4.436-4.618-5.289a5.309,5.309,0,0,1,.046.718c0,3.782-3.846,6.857-8.571,6.857a10.71,10.71,0,0,1-1.132-.068c1.125,2.054,3.768,3.5,6.846,3.5a9.038,9.038,0,0,0,3.975-.893,6.289,6.289,0,0,0,3.168.893.282.282,0,0,0,.261-.171.286.286,0,0,0-.054-.311A7.954,7.954,0,0,1,189.218,180.475Z" transform="translate(4140.997 -241.904)"/>
  </g>
</svg>
