<svg id="clock" xmlns="http://www.w3.org/2000/svg" viewBox="0 0 14 14">
  <defs>
    <style>
      .cls-1 {
        fill: #daa302;
      }
    </style>
  </defs>
  <path id="Path_386" data-name="Path 386" class="cls-1" d="M113.129,56.586l-4.164-.784,2.293-2.353-.3-.3-2.233,2.293V52H108.3v3.44H108v.966h.966v-.362l4.164.784Z" transform="translate(-101.483 -48.862)"/>
  <path id="Path_387" data-name="Path 387" class="cls-1" d="M7,0a7,7,0,1,0,7,7A7.005,7.005,0,0,0,7,0ZM9.9,11.707l-.181-.3c-.06-.121-.3,0-.241.121l.181.362a6.228,6.228,0,0,1-2.353.664V11.526a.3.3,0,0,0-.6,0v1.026a6.529,6.529,0,0,1-2.414-.664l.181-.3c.121-.181-.121-.3-.241-.181l-.181.3A5.761,5.761,0,0,1,2.233,9.9l.362-.181c.121-.121,0-.362-.181-.241l-.3.181A4.619,4.619,0,0,1,1.448,7.3h.966a.3.3,0,1,0,0-.6H1.448a5.239,5.239,0,0,1,.6-2.353l.3.181c.181.121.3-.121.121-.241L2.233,4.1A5.544,5.544,0,0,1,4.1,2.233l.181.3c.06.181.3.06.241-.121l-.181-.3A4.458,4.458,0,0,1,6.7,1.448V2.474a.3.3,0,0,0,.6,0V1.448a4.619,4.619,0,0,1,2.353.664l-.181.3c-.06.121.181.3.241.121l.181-.3a5.761,5.761,0,0,1,1.81,1.81l-.3.181c-.121.121,0,.362.181.241l.3-.181A6.529,6.529,0,0,1,12.552,6.7H11.526a.3.3,0,0,0,0,.6h1.026a6.228,6.228,0,0,1-.664,2.353l-.3-.181c-.181-.121-.3.181-.181.241l.3.181A4.742,4.742,0,0,1,9.9,11.707Z"/>
</svg>
