<svg xmlns="http://www.w3.org/2000/svg" viewBox="0 0 30 23.333">
  <defs>
    <style>
      .cls-1 {
        fill: #535e64;
      }
    </style>
  </defs>
  <g id="commentsINL" transform="translate(-1266 -22)">
    <path id="Path_373" data-name="Path 373" class="cls-1" d="M21.667,40.333c0-4.6-4.849-8.333-10.833-8.333S0,35.729,0,40.333a7.066,7.066,0,0,0,1.979,4.792A11.723,11.723,0,0,1,.115,47.964a.414.414,0,0,0-.078.453.408.408,0,0,0,.38.25,9.171,9.171,0,0,0,4.62-1.3,13.253,13.253,0,0,0,5.8,1.3C16.818,48.667,21.667,44.938,21.667,40.333ZM2.161,47.49c-.151,0-.661.042-.719-.094s.411-.9.51-1c.016-.016.318-.609.943-1.974A6.013,6.013,0,0,1,1.12,40.276c0-3.984,4.349-7.214,9.714-7.214s9.714,3.229,9.714,7.214S16.2,47.49,10.833,47.49a12.307,12.307,0,0,1-5.2-1.125A5.948,5.948,0,0,1,2.161,47.49Z" transform="translate(1266 -10)"/>
    <path id="Path_374" data-name="Path 374" class="cls-1" d="M195.139,184.405a7.056,7.056,0,0,0,1.979-4.792c0-3.484-2.786-6.469-6.734-7.714a7.74,7.74,0,0,1,.068,1.047c0,5.516-5.609,10-12.5,10a15.614,15.614,0,0,1-1.651-.1c1.641,2.995,5.495,5.1,9.984,5.1a13.18,13.18,0,0,0,5.8-1.3,9.171,9.171,0,0,0,4.62,1.3.411.411,0,0,0,.38-.25.417.417,0,0,0-.078-.453A11.6,11.6,0,0,1,195.139,184.405Z" transform="translate(1098.882 -142.614)"/>
  </g>
</svg>
