<svg xmlns="http://www.w3.org/2000/svg" viewBox="0 0 27 35.667">
  <defs>
    <style>
      .cls-1 {
        fill: #667450;
        stroke: #667450;
      }
    </style>
  </defs>
  <g id="noun_Medal_542616" transform="translate(-2.5 0.5)">
    <g id="Group_245" data-name="Group 245" transform="translate(3 0)">
      <path id="Path_383" data-name="Path 383" class="cls-1" d="M28.278,0H3.722A.682.682,0,0,0,3,.722V5.778A3.555,3.555,0,0,0,5.6,9.244l5.633,1.589a13.524,13.524,0,0,0,2.311.578A2.912,2.912,0,0,0,13.111,13a3.539,3.539,0,0,0,.578,1.733,10.111,10.111,0,1,0,4.622,0A3.539,3.539,0,0,0,18.889,13a2.912,2.912,0,0,0-.433-1.589,13.524,13.524,0,0,0,2.311-.578L26.4,9.244A3.555,3.555,0,0,0,29,5.778V.722A.682.682,0,0,0,28.278,0ZM10.222,9.1,6.033,7.8A1.906,1.906,0,0,1,4.444,5.778V1.444h5.778ZM24.667,24.556A8.667,8.667,0,1,1,16,15.889,8.692,8.692,0,0,1,24.667,24.556ZM14.556,13a1.536,1.536,0,0,1,1.3-1.444h.289A1.536,1.536,0,0,1,17.444,13,1.365,1.365,0,0,1,16,14.444,1.365,1.365,0,0,1,14.556,13Zm5.778-3.467a13.356,13.356,0,0,1-4.189.578h-.433a13.964,13.964,0,0,1-4.189-.578h0V1.444h8.667l.144,8.089Zm7.222-3.756A1.906,1.906,0,0,1,25.967,7.8L21.778,9.1V1.444h5.778ZM15.278,17.767l-1.3,3.9H10.222A.794.794,0,0,0,9.5,22.1c-.144.289,0,.578.289.867l3.178,2.311-1.3,4.189c-.144.289,0,.578.289.867h.433a.531.531,0,0,0,.433-.144L16,27.589l3.178,2.6a.921.921,0,0,0,.867,0,.7.7,0,0,0,.289-.867l-1.3-4.044,3.033-2.311c.289-.144.289-.578.289-.867s-.289-.433-.578-.433H18.022l-1.3-3.9A.819.819,0,0,0,15.278,17.767Zm1.444,4.911a.794.794,0,0,0,.722.433h2.167l-1.733,1.3c-.289.144-.289.433-.289.722l.722,2.311L16.433,26H16a.531.531,0,0,0-.433.144l-1.878,1.444.722-2.311a.528.528,0,0,0-.289-.722l-1.733-1.444h2.167a.794.794,0,0,0,.722-.433L16,20.367Z" transform="translate(-3 0)"/>
    </g>
  </g>
</svg>
