<svg xmlns="http://www.w3.org/2000/svg" viewBox="0 0 24.471 19.033">
  <defs>
    <style>
      .cls-1 {
        fill: #3c628f;
      }
    </style>
  </defs>
  <g id="Group_447" data-name="Group 447" transform="translate(-965 -499)">
    <path id="Path_373" data-name="Path 373" class="cls-1" d="M17.674,38.8c0-3.756-3.955-6.8-8.837-6.8S0,35.042,0,38.8a5.764,5.764,0,0,0,1.614,3.909A9.563,9.563,0,0,1,.093,45.022a.338.338,0,0,0-.064.37.333.333,0,0,0,.31.2,7.481,7.481,0,0,0,3.768-1.062A10.81,10.81,0,0,0,8.837,45.6C13.718,45.6,17.674,42.553,17.674,38.8ZM1.763,44.635c-.123,0-.54.034-.586-.076s.336-.731.416-.816c.013-.013.259-.5.769-1.61A4.9,4.9,0,0,1,.913,38.751c0-3.25,3.548-5.884,7.923-5.884S16.76,35.5,16.76,38.751s-3.548,5.884-7.923,5.884a10.039,10.039,0,0,1-4.24-.918A4.851,4.851,0,0,1,1.763,44.635Z" transform="translate(965 467)"/>
    <path id="Path_374" data-name="Path 374" class="cls-1" d="M191.667,182.1a5.756,5.756,0,0,0,1.614-3.909c0-2.842-2.273-5.277-5.493-6.292a6.314,6.314,0,0,1,.055.854c0,4.5-4.576,8.157-10.2,8.157a12.737,12.737,0,0,1-1.347-.081c1.338,2.443,4.482,4.159,8.144,4.159a10.751,10.751,0,0,0,4.729-1.062,7.481,7.481,0,0,0,3.768,1.062.335.335,0,0,0,.31-.2.34.34,0,0,0-.064-.37A9.46,9.46,0,0,1,191.667,182.1Z" transform="translate(796.19 333.044)"/>
  </g>
</svg>
