<svg xmlns="http://www.w3.org/2000/svg" viewBox="0 0 24 23.28">
  <defs>
    <style>
      .cls-1 {
        fill: #535e64;
      }
    </style>
  </defs>
  <g id="Consular_Vetting_INL" data-name="Consular Vetting INL" transform="translate(-1144 -22)">
    <path id="Path_369" data-name="Path 369" class="cls-1" d="M187.952,100.6a7.952,7.952,0,1,0,7.952,7.952A7.955,7.955,0,0,0,187.952,100.6Zm4.981,6.261-5.9,5.9h0a.512.512,0,0,1-.725,0l-3.336-3.336a.512.512,0,0,1,0-.725l.725-.725a.512.512,0,0,1,.725,0l2.246,2.246,4.811-4.811a.512.512,0,0,1,.725,0l.725.725A.507.507,0,0,1,192.933,106.861Z" transform="translate(972.096 -74.95)"/>
    <path id="Path_370" data-name="Path 370" class="cls-1" d="M34.261,50.434c-5.495,0-8.677-3.552-8.677-9.078,0-5.927,3.516-9.309,8.81-9.309a10.629,10.629,0,0,1,4.554.936l.7-2.38a12.129,12.129,0,0,0-5.361-1c-7,0-11.792,4.791-11.792,11.859,0,7.4,4.791,11.422,11.154,11.422a14.412,14.412,0,0,0,5.963-1.074l-.6-2.313A11.641,11.641,0,0,1,34.261,50.434Z" transform="translate(1121.5 -7.6)"/>
  </g>
</svg>
