<svg xmlns="http://www.w3.org/2000/svg" viewBox="0 0 30 30">
  <defs>
    <style>
      .cls-1 {
        fill: #699228;
      }
    </style>
  </defs>
  <path id="download" class="cls-1" d="M12.656,0h4.688A1.4,1.4,0,0,1,18.75,1.406V11.25h5.139a1.17,1.17,0,0,1,.826,2L15.8,22.166a1.135,1.135,0,0,1-1.6,0L5.279,13.248a1.17,1.17,0,0,1,.826-2H11.25V1.406A1.4,1.4,0,0,1,12.656,0ZM30,22.031v6.563A1.4,1.4,0,0,1,28.594,30H1.406A1.4,1.4,0,0,1,0,28.594V22.031a1.4,1.4,0,0,1,1.406-1.406H10L12.873,23.5a3,3,0,0,0,4.254,0L20,20.625h8.6A1.4,1.4,0,0,1,30,22.031Zm-7.266,5.156a1.172,1.172,0,1,0-1.172,1.172A1.175,1.175,0,0,0,22.734,27.188Zm3.75,0a1.172,1.172,0,1,0-1.172,1.172A1.175,1.175,0,0,0,26.484,27.188Z"/>
</svg>
