<svg xmlns="http://www.w3.org/2000/svg" viewBox="0 0 15 20">
  <defs>
    <style>
      .cls-1 {
        fill: #699228;
      }
    </style>
  </defs>
  <path id="file-alt" class="cls-1" d="M8.75,5.313V0H.938A.935.935,0,0,0,0,.938V19.063A.935.935,0,0,0,.938,20H14.063A.935.935,0,0,0,15,19.063V6.25H9.688A.94.94,0,0,1,8.75,5.313Zm2.5,9.219a.47.47,0,0,1-.469.469H4.219a.47.47,0,0,1-.469-.469v-.312a.47.47,0,0,1,.469-.469h6.563a.47.47,0,0,1,.469.469Zm0-2.5a.47.47,0,0,1-.469.469H4.219a.47.47,0,0,1-.469-.469v-.312a.47.47,0,0,1,.469-.469h6.563a.47.47,0,0,1,.469.469Zm0-2.812v.313a.47.47,0,0,1-.469.469H4.219a.47.47,0,0,1-.469-.469V9.219a.47.47,0,0,1,.469-.469h6.563A.47.47,0,0,1,11.25,9.219ZM15,4.762V5H10V0h.238A.937.937,0,0,1,10.9.273L14.727,4.1A.935.935,0,0,1,15,4.762Z"/>
</svg>
