<svg xmlns="http://www.w3.org/2000/svg" viewBox="0 0 27 24">
  <defs>
    <style>
      .cls-1 {
        fill: #535e64;
      }
    </style>
  </defs>
  <path id="file-export" class="cls-1" d="M18,5.714a1.121,1.121,0,0,0-.328-.792L13.083.328a1.124,1.124,0,0,0-.8-.328H12V6h6ZM9,15.75v-1.5a.75.75,0,0,1,.75-.75H18v-6H11.625A1.128,1.128,0,0,1,10.5,6.375V0H1.125A1.122,1.122,0,0,0,0,1.125v21.75A1.122,1.122,0,0,0,1.125,24h15.75A1.122,1.122,0,0,0,18,22.875V16.5H9.75A.75.75,0,0,1,9,15.75Zm17.768-1.313-4.486-4.52A.75.75,0,0,0,21,10.445V13.5H18v3h3v3.055a.75.75,0,0,0,1.282.528l4.486-4.52A.8.8,0,0,0,26.768,14.437Z"/>
</svg>
