<svg xmlns="http://www.w3.org/2000/svg" viewBox="0 0 34 26.842">
  <defs>
    <style>
      .cls-1 {
        fill: #535e64;
      }
    </style>
  </defs>
  <g id="Group_105" data-name="Group 105" transform="translate(-808 -20)">
    <g id="Instructor_Database_INL" data-name="Instructor Database INL" transform="translate(-1)">
      <path id="Path_352" data-name="Path 352" class="cls-1" d="M54.389,21.583H45.844V19.94a.84.84,0,0,0-1.68,0v1.643H35.691A2.2,2.2,0,0,0,33.5,23.775V36.958a2.2,2.2,0,0,0,2.191,2.191h4.017l-1.315,4.857H40.11l1.315-4.857h2.812v4.857H45.88V39.186h2.776l1.315,4.857h1.716l-1.315-4.857h4.017a2.2,2.2,0,0,0,2.191-2.191V23.811A2.206,2.206,0,0,0,54.389,21.583Zm1.1,15.411a1.1,1.1,0,0,1-1.1,1.1h-18.7a1.1,1.1,0,0,1-1.1-1.1V23.811a1.1,1.1,0,0,1,1.1-1.1h18.7a1.1,1.1,0,0,1,1.1,1.1Z" transform="translate(786.419 2.799)"/>
      <path id="Path_353" data-name="Path 353" class="cls-1" d="M30.223,37.123a.3.3,0,0,0-.365-.146L21.787,40.7a1.427,1.427,0,0,0-.84-.876L16.6,38.365h0L15.14,37.89l-.8-.256c-.11-.037-.584-.219-1.278-.4h0l-.4-.11a.367.367,0,0,0-.4.183L10.1,43.222a.394.394,0,0,1-.73,0L7.215,37.306a.306.306,0,0,0-.292-.219c-.037,0-1.132.329-1.132.329A3.179,3.179,0,0,0,3.6,40.446v6.245a.329.329,0,0,0,.037.183L5.9,50.307v5.04h7.633v-5.04h0V40.3l1.9.621h0l1.351.438,3.25,1.1a1.833,1.833,0,0,0,.438.073,1.4,1.4,0,0,0,1.315-.95.8.8,0,0,0,.037-.292l8.253-3.8A.251.251,0,0,0,30.223,37.123Z" transform="translate(805.4 -8.541)"/>
      <path id="Path_354" data-name="Path 354" class="cls-1" d="M17.858,17.479a3.579,3.579,0,1,0-3.579,3.579,3.585,3.585,0,0,0,3.579-3.579Z" transform="translate(800.893 6.1)"/>
      <path id="Path_355" data-name="Path 355" class="cls-1" d="M19.606,37.646a.423.423,0,0,0-.365-.146h-.986a.469.469,0,0,0-.365.146.5.5,0,0,0-.073.548l.511.8-.256,2.082.475,1.278c.037.146.219.146.292,0l.475-1.278L19.058,39l.511-.8a.368.368,0,0,0,.037-.548Z" transform="translate(796.406 -8.881)"/>
    </g>
  </g>
</svg>
