<svg xmlns="http://www.w3.org/2000/svg" viewBox="0 0 31.259 27.142">
  <defs>
    <style>
      .cls-1, .cls-2 {
        fill: #535e64;
        stroke: #fff;
        stroke-miterlimit: 10;
      }

      .cls-1 {
        stroke-width: 0.25px;
      }

      .cls-2 {
        stroke-width: 2px;
      }
    </style>
  </defs>
  <g id="Group_104" data-name="Group 104" transform="translate(-4106.566 60.125)">
    <g id="databaseINL" transform="translate(3063.691 -81)">
      <path id="Path_356" data-name="Path 356" class="cls-1" d="M24.733,286.227a1.307,1.307,0,0,1-1.307-1.307v-1.178c-3.756-.043-7.462-.721-9.526-2.142v4.534c0,1.778,4.427,3.228,9.883,3.228a19.778,19.778,0,0,0,8.355-1.507v-1.628Z" transform="translate(1029.1 -245.776)"/>
      <path id="Path_357" data-name="Path 357" class="cls-1" d="M33.666,79.091V77.228c0-1.778-4.427-3.228-9.883-3.228S13.9,75.45,13.9,77.228v2.014c0,1.778,4.427,3.228,9.883,3.228a19.777,19.777,0,0,0,8.355-1.507v-.578A1.314,1.314,0,0,1,33.666,79.091Z" transform="translate(1029.1 -53)"/>
      <path id="Path_358" data-name="Path 358" class="cls-1" d="M24.732,186.642h7.4v-3.035a23.174,23.174,0,0,1-8.355,1.335c-3.877,0-7.755-.685-9.883-2.142v4.534c0,1.742,4.234,3.163,9.526,3.228v-2.613A1.307,1.307,0,0,1,24.732,186.642Z" transform="translate(1029.1 -154.031)"/>
      <path id="Path_359" data-name="Path 359" class="cls-2" d="M167.394,154.592l-9.147-9.147a1.31,1.31,0,0,0-2.235.928V151.6h-7.4a1.307,1.307,0,0,0-1.307,1.307v5.227a1.307,1.307,0,0,0,1.307,1.307h7.4v5.227a1.312,1.312,0,0,0,2.235.928l9.147-9.147A1.323,1.323,0,0,0,167.394,154.592Z" transform="translate(905.226 -118.989)"/>
    </g>
  </g>
</svg>
