<svg xmlns="http://www.w3.org/2000/svg" viewBox="0 0 28 24.606">
  <defs>
    <style>
      .cls-1 {
        fill: #535e64;
      }
    </style>
  </defs>
  <path id="list-ol" class="cls-1" d="M2.268,37.906A.568.568,0,0,1,2.9,37.27h.831V35.08c0-.284.029-.577.029-.577h-.02a1.88,1.88,0,0,1-.156.205.563.563,0,0,1-.86-.059l-.3-.342a.565.565,0,0,1,.029-.9l1.193-1.1A1.046,1.046,0,0,1,4.439,32H5.1a.571.571,0,0,1,.645.636V37.27H6.6a.568.568,0,0,1,.636.636v.489a.568.568,0,0,1-.636.636H2.9a.568.568,0,0,1-.636-.636ZM2.21,46.972c0-2.6,2.8-3.1,2.8-3.8a.469.469,0,0,0-.51-.481.742.742,0,0,0-.519.212c-.279.269-.577.385-.885.135l-.471-.375a.546.546,0,0,1-.154-.846,2.66,2.66,0,0,1,2.222-1.029,2.225,2.225,0,0,1,2.443,2.174c0,2.106-2.568,2.549-2.674,3.126H6.605a.566.566,0,0,1,.635.625v.481a.566.566,0,0,1-.635.625H2.874a.6.6,0,0,1-.664-.625v-.221Zm.189,8.24.308-.51c.212-.365.5-.385.856-.173a1.983,1.983,0,0,0,.789.173c.558,0,.789-.192.789-.452,0-.365-.308-.5-.875-.5h-.26a.667.667,0,0,1-.673-.433l-.058-.106a.728.728,0,0,1,.154-.818l.308-.385a8.125,8.125,0,0,1,.673-.741v-.019a3.174,3.174,0,0,1-.692.058H3.005a.559.559,0,0,1-.625-.625V50.2a.555.555,0,0,1,.625-.625H6.217a.559.559,0,0,1,.625.625v.183a1.1,1.1,0,0,1-.279.779L5.6,52.269a1.98,1.98,0,0,1,1.577,1.914,2.408,2.408,0,0,1-2.664,2.424,3.675,3.675,0,0,1-1.972-.519.594.594,0,0,1-.144-.875ZM10,37.492H29.331a.879.879,0,0,0,.879-.879v-2.2a.879.879,0,0,0-.879-.879H10a.879.879,0,0,0-.879.879v2.2A.879.879,0,0,0,10,37.492Zm0,8.788H29.331a.879.879,0,0,0,.879-.879V43.2a.879.879,0,0,0-.879-.879H10a.879.879,0,0,0-.879.879v2.2A.879.879,0,0,0,10,46.28Zm0,8.788H29.331a.879.879,0,0,0,.879-.879v-2.2a.879.879,0,0,0-.879-.879H10a.879.879,0,0,0-.879.879v2.2A.879.879,0,0,0,10,55.068Z" transform="translate(-2.21 -32)"/>
</svg>
