<svg xmlns="http://www.w3.org/2000/svg" viewBox="0 0 27.077 22">
  <defs>
    <style>
      .cls-1 {
        fill: #707070;
      }
    </style>
  </defs>
  <path id="list" class="cls-1" d="M6.769,51.6V49.481a.846.846,0,0,1,.846-.846H26.231a.846.846,0,0,1,.846.846V51.6a.846.846,0,0,1-.846.846H7.615A.846.846,0,0,1,6.769,51.6ZM7.615,60.9H26.231a.846.846,0,0,0,.846-.846V57.942a.846.846,0,0,0-.846-.846H7.615a.846.846,0,0,0-.846.846v2.115A.846.846,0,0,0,7.615,60.9Zm0,8.462H26.231a.846.846,0,0,0,.846-.846V66.4a.846.846,0,0,0-.846-.846H7.615a.846.846,0,0,0-.846.846v2.115A.846.846,0,0,0,7.615,69.365ZM.846,53.077H4.231a.846.846,0,0,0,.846-.846V48.846A.846.846,0,0,0,4.231,48H.846A.846.846,0,0,0,0,48.846v3.385A.846.846,0,0,0,.846,53.077Zm0,8.462H4.231a.846.846,0,0,0,.846-.846V57.308a.846.846,0,0,0-.846-.846H.846A.846.846,0,0,0,0,57.308v3.385A.846.846,0,0,0,.846,61.538ZM.846,70H4.231a.846.846,0,0,0,.846-.846V65.769a.846.846,0,0,0-.846-.846H.846A.846.846,0,0,0,0,65.769v3.385A.846.846,0,0,0,.846,70Z" transform="translate(0 -48)"/>
</svg>
