<svg xmlns="http://www.w3.org/2000/svg" viewBox="0 0 32.057 25.723">
  <defs>
    <style>
      .cls-1, .cls-5 {
        fill: #535e64;
      }

      .cls-2, .cls-3, .cls-4 {
        fill: none;
      }

      .cls-3, .cls-4 {
        stroke: #707070;
      }

      .cls-3, .cls-4, .cls-5 {
        stroke-miterlimit: 10;
      }

      .cls-4 {
        stroke-dasharray: 12.012 12.012;
      }

      .cls-5 {
        stroke: #fff;
      }
    </style>
  </defs>
  <g id="M-E_INL" data-name="M-E INL" transform="translate(-996.5 -19.877)">
    <g id="Group_101" data-name="Group 101" transform="translate(996.5 20)">
      <path id="Path_378" data-name="Path 378" class="cls-1" d="M31.4,416H19.475a.293.293,0,0,0-.3.255A1.6,1.6,0,0,1,17.6,417.6H14.4a1.6,1.6,0,0,1-1.58-1.345.3.3,0,0,0-.3-.255H.6a.6.6,0,0,0-.6.6v1.8a2.4,2.4,0,0,0,2.4,2.4H29.6a2.4,2.4,0,0,0,2.4-2.4v-1.8A.6.6,0,0,0,31.4,416Z" transform="translate(0 -395.2)"/>
      <path id="Path_379" data-name="Path 379" class="cls-1" d="M66.4,19.2H87.2a2.4,2.4,0,0,0,2.4-2.4V2.4A2.4,2.4,0,0,0,87.2,0H66.4A2.4,2.4,0,0,0,64,2.4V16.8A2.4,2.4,0,0,0,66.4,19.2Zm-1.265-16a2.134,2.134,0,0,1,2.175-2.09H86.175a2.134,2.134,0,0,1,2.175,2.09V15.76a2.134,2.134,0,0,1-2.175,2.09H67.31a2.134,2.134,0,0,1-2.175-2.09Z" transform="translate(-60.8)"/>
      <path id="Path_380" data-name="Path 380" class="cls-1" d="M177.66,105.46a.378.378,0,0,1,.375.375v1.245a.378.378,0,0,1-.375.375H162.475a.378.378,0,0,1-.375-.375V95.875a.378.378,0,0,1,.375-.375h1.245a.378.378,0,0,1,.375.375v9.585Zm-9.585-1.37v-2.24a.378.378,0,0,0-.375-.375h-1.245a.378.378,0,0,0-.375.375v2.24a.378.378,0,0,0,.375.375H167.7A.378.378,0,0,0,168.075,104.09Zm5.975,0V99.86a.378.378,0,0,0-.375-.375H172.43a.378.378,0,0,0-.375.375v4.23a.378.378,0,0,0,.375.375h1.245A.378.378,0,0,0,174.05,104.09Zm-2.99,0V97.865a.378.378,0,0,0-.375-.375h-1.24a.378.378,0,0,0-.375.375v6.225a.378.378,0,0,0,.375.375h1.245A.373.373,0,0,0,171.06,104.09Zm5.975,0V96.87a.378.378,0,0,0-.375-.375h-1.245a.378.378,0,0,0-.375.375v7.22a.378.378,0,0,0,.375.375h1.245A.374.374,0,0,0,177.035,104.09Z" transform="translate(-153.995 -90.725)"/>
    </g>
    <g id="Group_103" data-name="Group 103" transform="translate(1000.835 28.75)">
      <line id="Line_12" data-name="Line 12" class="cls-2" x2="16.815"/>
      <g id="Group_102" data-name="Group 102">
        <line id="Line_13" data-name="Line 13" class="cls-3" x2="0.3"/>
        <line id="Line_14" data-name="Line 14" class="cls-4" x2="15.315" transform="translate(0.9)"/>
        <line id="Line_15" data-name="Line 15" class="cls-3" x2="0.3" transform="translate(16.515)"/>
      </g>
    </g>
    <path id="Path_381" data-name="Path 381" class="cls-5" d="M367.929,14.57l1.235-1.21a.641.641,0,0,0-.285-1.085l-1.685-.43.475-1.67a.655.655,0,0,0-.8-.8l-1.665.48-.43-1.685a.645.645,0,0,0-1.085-.285l-1.21,1.245-1.21-1.245a.645.645,0,0,0-1.085.285l-.43,1.685-1.665-.475a.655.655,0,0,0-.8.8l.475,1.67-1.685.43a.639.639,0,0,0-.285,1.085l1.235,1.21-1.235,1.21a.641.641,0,0,0,.285,1.085l1.685.43-.475,1.67a.655.655,0,0,0,.8.8l1.665-.475.43,1.685a.639.639,0,0,0,1.085.285l1.21-1.235,1.21,1.235a.642.642,0,0,0,1.085-.285l.43-1.685,1.665.475a.655.655,0,0,0,.8-.8l-.475-1.67,1.685-.43a.639.639,0,0,0,.285-1.085l-1.235-1.215Z" transform="translate(658.686 12.695)"/>
    <circle id="Ellipse_1" data-name="Ellipse 1" class="cls-5" cx="3.155" cy="3.155" r="3.155" transform="translate(1018.1 24)"/>
  </g>
</svg>
