<svg id="Microphone" xmlns="http://www.w3.org/2000/svg" viewBox="0 0 14.933 14.933">
  <defs>
    <style>
      .cls-1 {
        fill: none;
      }

      .cls-2 {
        fill: #62615f;
      }
    </style>
  </defs>
  <rect id="Rectangle_313" data-name="Rectangle 313" class="cls-1" width="14.933" height="14.933"/>
  <path id="Path_124" data-name="Path 124" class="cls-2" d="M11.725,6.171A6.032,6.032,0,0,1,10.367,10a6.129,6.129,0,0,1-3.579,1.975v2.592c0,.123,0,.123-.123.247a.431.431,0,0,1-.247.123H5.183c-.123,0-.123,0-.247-.123a.171.171,0,0,1,0-.247V11.971A6.129,6.129,0,0,1,1.358,10,6.032,6.032,0,0,1,0,6.171a.943.943,0,0,1,.247-.617.943.943,0,0,1,.617-.247.943.943,0,0,1,.617.247.679.679,0,0,1,.37.617A3.574,3.574,0,0,0,3.085,9.009a4.018,4.018,0,0,0,2.839,1.234A3.574,3.574,0,0,0,8.763,9.009,3.91,3.91,0,0,0,9.873,6.171a.873.873,0,0,1,1.481-.617A.679.679,0,0,1,11.725,6.171Zm-8.639,0V2.715A2.456,2.456,0,0,1,3.949.74,2.606,2.606,0,0,1,5.924,0,2.3,2.3,0,0,1,7.9.864a2.512,2.512,0,0,1,.74,1.851V6.171a2.456,2.456,0,0,1-.864,1.975,2.512,2.512,0,0,1-1.851.74,2.606,2.606,0,0,1-1.975-.74A2.456,2.456,0,0,1,3.085,6.171Z" transform="translate(1.878)"/>
</svg>
