<svg xmlns="http://www.w3.org/2000/svg" viewBox="0 0 31.25 25">
  <defs>
    <style>
      .cls-1 {
        fill: #699228;
      }
    </style>
  </defs>
  <path id="sitemap" class="cls-1" d="M6.25,17.188H1.563A1.563,1.563,0,0,0,0,18.75v4.688A1.563,1.563,0,0,0,1.563,25H6.25a1.563,1.563,0,0,0,1.562-1.562V18.75A1.563,1.563,0,0,0,6.25,17.188ZM5.078,13.281h9.375v2.344H16.8V13.281h9.375v2.344h2.344V12.813a1.878,1.878,0,0,0-1.875-1.875H16.8V7.812H18.75A1.563,1.563,0,0,0,20.313,6.25V1.563A1.563,1.563,0,0,0,18.75,0H12.5a1.563,1.563,0,0,0-1.562,1.563V6.25A1.563,1.563,0,0,0,12.5,7.812h1.953v3.125H4.61a1.878,1.878,0,0,0-1.875,1.875v2.812H5.078Zm12.891,3.906H13.281a1.563,1.563,0,0,0-1.562,1.563v4.688A1.563,1.563,0,0,0,13.281,25h4.688a1.563,1.563,0,0,0,1.563-1.562V18.75A1.563,1.563,0,0,0,17.969,17.188Zm11.719,0H25a1.563,1.563,0,0,0-1.562,1.563v4.688A1.563,1.563,0,0,0,25,25h4.687a1.563,1.563,0,0,0,1.563-1.562V18.75A1.563,1.563,0,0,0,29.687,17.188Z"/>
</svg>
