<svg xmlns="http://www.w3.org/2000/svg" viewBox="0 0 16 16">
  <defs>
    <style>
      .cls-1 {
        fill: #fff;
      }
    </style>
  </defs>
  <path id="pen-square" class="cls-1" d="M14.286,48H1.714A1.715,1.715,0,0,1,0,46.286V33.714A1.715,1.715,0,0,1,1.714,32H14.286A1.715,1.715,0,0,1,16,33.714V46.286A1.715,1.715,0,0,1,14.286,48ZM8.5,37.211,3.657,42.057,3.432,44.1a.432.432,0,0,0,.475.475l2.039-.225L10.793,39.5a.218.218,0,0,0,0-.3L8.811,37.214a.219.219,0,0,0-.307,0Zm3.818-.457-1.075-1.075a.854.854,0,0,0-1.211,0l-.825.825a.218.218,0,0,0,0,.3l1.982,1.982a.218.218,0,0,0,.3,0l.825-.825A.86.86,0,0,0,12.321,36.754Z" transform="translate(0 -32)"/>
</svg>
