<svg xmlns="http://www.w3.org/2000/svg" viewBox="0 0 16 16">
  <defs>
    <style>
      .cls-1 {
        fill: #535e64;
      }
    </style>
  </defs>
  <path id="pencil-alt" class="cls-1" d="M.464,4.513,1.905,5.954a.375.375,0,0,0,.531,0L5.905,2.485a.375.375,0,0,0,0-.531L4.464.513a1.5,1.5,0,0,0-2.122,0L.464,2.392A1.5,1.5,0,0,0,.464,4.513ZM7.143,3.192,15.349,11.4l.663,3.8a.751.751,0,0,1-.869.869l-3.8-.666L3.139,7.192a.375.375,0,0,1,0-.531L6.608,3.192a.379.379,0,0,1,.534,0Zm5,7.5a.436.436,0,0,0,0-.619L7.333,5.264a.438.438,0,1,0-.619.619L11.527,10.7a.436.436,0,0,0,.619,0Zm1.128,2.628h-1.5v1.134l2.016.353.972-.972-.353-2.016H13.274Z" transform="translate(-0.023 -0.075)"/>
</svg>
