<svg xmlns="http://www.w3.org/2000/svg" viewBox="0 0 22 22">
  <defs>
    <style>
      .cls-1 {
        fill: #699228;
      }
    </style>
  </defs>
  <path id="plus-circle" class="cls-1" d="M19,8A11,11,0,1,0,30,19,11,11,0,0,0,19,8Zm6.387,12.242a.534.534,0,0,1-.532.532H20.774v4.081a.534.534,0,0,1-.532.532H17.758a.534.534,0,0,1-.532-.532V20.774H13.145a.534.534,0,0,1-.532-.532V17.758a.534.534,0,0,1,.532-.532h4.081V13.145a.534.534,0,0,1,.532-.532h2.484a.534.534,0,0,1,.532.532v4.081h4.081a.534.534,0,0,1,.532.532Z" transform="translate(-8 -8)"/>
</svg>
