<svg xmlns="http://www.w3.org/2000/svg" xmlns:xlink="http://www.w3.org/1999/xlink" viewBox="0 0 158 43">
  <defs>
    <style>
      .cls-1 {
        fill: #661c97;
      }

      .cls-2, .cls-3 {
        fill: #fff;
      }

      .cls-2 {
        font-size: 14px;
        font-family: SegoeUI-Bold, Segoe UI;
        font-weight: 700;
      }

      .cls-4 {
        filter: url(#Rectangle_1536);
      }
    </style>
    <filter id="Rectangle_1536" x="0" y="0" width="158" height="43" filterUnits="userSpaceOnUse">
      <feOffset dy="3" input="SourceAlpha"/>
      <feGaussianBlur stdDeviation="3" result="blur"/>
      <feFlood flood-opacity="0.392"/>
      <feComposite operator="in" in2="blur"/>
      <feComposite in="SourceGraphic"/>
    </filter>
  </defs>
  <g id="Group_449" data-name="Group 449" transform="translate(-1215 -7)">
    <g class="cls-4" transform="matrix(1, 0, 0, 1, 1215, 7)">
      <rect id="Rectangle_1536-2" data-name="Rectangle 1536" class="cls-1" width="140" height="25" rx="5" transform="translate(9 6)"/>
    </g>
    <g id="Group_448" data-name="Group 448" transform="translate(-5.166)">
      <g id="Group_194" data-name="Group 194" transform="translate(-2667.5 99.667)">
        <g id="Group_67" data-name="Group 67" transform="translate(2609 -186.667)">
          <text id="RE-OPEN_EVENT" data-name="RE-OPEN EVENT" class="cls-2" transform="translate(1314 118)"><tspan x="0" y="0">RE-OPEN EVENT</tspan></text>
        </g>
      </g>
      <path id="check-circle" class="cls-3" d="M24,16a8,8,0,1,1-8-8A8,8,0,0,1,24,16Zm-8.925,4.236L21.01,14.3a.516.516,0,0,0,0-.73l-.73-.73a.516.516,0,0,0-.73,0L14.71,17.681l-2.26-2.26a.516.516,0,0,0-.73,0l-.73.73a.516.516,0,0,0,0,.73l3.355,3.355a.516.516,0,0,0,.73,0Z" transform="translate(1228.166 9.667)"/>
    </g>
  </g>
</svg>
