<svg xmlns="http://www.w3.org/2000/svg" viewBox="0 0 18.75 25">
  <defs>
    <style>
      .cls-1 {
        fill: #699228;
      }
    </style>
  </defs>
  <path id="clipboard-list" class="cls-1" d="M16.406,3.125H12.5a3.125,3.125,0,0,0-6.25,0H2.344A2.344,2.344,0,0,0,0,5.469V22.656A2.344,2.344,0,0,0,2.344,25H16.406a2.344,2.344,0,0,0,2.344-2.344V5.469A2.344,2.344,0,0,0,16.406,3.125ZM4.688,20.7a1.172,1.172,0,1,1,1.172-1.172A1.169,1.169,0,0,1,4.688,20.7Zm0-4.687a1.172,1.172,0,1,1,1.172-1.172A1.169,1.169,0,0,1,4.688,16.016Zm0-4.687a1.172,1.172,0,1,1,1.172-1.172A1.169,1.169,0,0,1,4.688,11.328ZM9.375,1.953A1.172,1.172,0,1,1,8.2,3.125,1.169,1.169,0,0,1,9.375,1.953Zm6.25,17.969a.392.392,0,0,1-.391.391H8.2a.392.392,0,0,1-.391-.391v-.781A.392.392,0,0,1,8.2,18.75h7.031a.392.392,0,0,1,.391.391Zm0-4.687a.392.392,0,0,1-.391.391H8.2a.392.392,0,0,1-.391-.391v-.781a.392.392,0,0,1,.391-.391h7.031a.392.392,0,0,1,.391.391Zm0-4.687a.392.392,0,0,1-.391.391H8.2a.392.392,0,0,1-.391-.391V9.766A.392.392,0,0,1,8.2,9.375h7.031a.392.392,0,0,1,.391.391Z"/>
</svg>
