<svg id="Search" xmlns="http://www.w3.org/2000/svg" viewBox="0 0 14.933 14.933">
  <defs>
    <style>
      .cls-1 {
        fill: none;
      }

      .cls-2 {
        fill: #62615f;
      }
    </style>
  </defs>
  <rect id="Rectangle_176" data-name="Rectangle 176" class="cls-1" width="14.933" height="14.933" transform="translate(0)"/>
  <path id="Path_99" data-name="Path 99" class="cls-2" d="M14.927,13.533l-3.1-3.08a6.366,6.366,0,0,0,1.314-3.92A6.512,6.512,0,0,0,6.571,0a6.533,6.533,0,1,0,0,13.067,6.452,6.452,0,0,0,3.943-1.307l3.1,3.08Zm-13.049-7A4.635,4.635,0,0,1,6.571,1.867a4.667,4.667,0,1,1,0,9.333A4.635,4.635,0,0,1,1.878,6.533Z" transform="translate(0)"/>
</svg>
