<svg xmlns="http://www.w3.org/2000/svg" viewBox="0 0 24 23.915">
  <defs>
    <style>
      .cls-1 {
        fill: #535e64;
      }
    </style>
  </defs>
  <g id="Settings_INL" data-name="Settings INL" transform="translate(-1188 -22)">
    <g id="Group_62" data-name="Group 62" transform="translate(1188 22)">
      <path id="Path_371" data-name="Path 371" class="cls-1" d="M55.279,46.955a2.012,2.012,0,0,1-.032.746,5.8,5.8,0,0,1-.245.885,4.346,4.346,0,0,1-.448.821,1.575,1.575,0,0,1-.565.512,1.271,1.271,0,0,1-.533.16,1.375,1.375,0,0,1-.512-.107,4.139,4.139,0,0,0-.639-.139,3.171,3.171,0,0,0-.778-.021,4.248,4.248,0,0,0-.8.16,1.39,1.39,0,0,0-.671.448,2.571,2.571,0,0,0-.725,1.471,2.915,2.915,0,0,0,.234,1.567.984.984,0,0,1-.075,1.034,1.734,1.734,0,0,1-.5.426,6.723,6.723,0,0,1-.725.4,4.8,4.8,0,0,1-.831.288,3.148,3.148,0,0,1-.778.107.655.655,0,0,1-.448-.181.9.9,0,0,1-.288-.394h-.053a3.327,3.327,0,0,0-.959-1.385,2.415,2.415,0,0,0-3.155,0,3.1,3.1,0,0,0-.991,1.353.821.821,0,0,1-.394.448,1.2,1.2,0,0,1-.565.139,2.759,2.759,0,0,1-.821-.128,7.658,7.658,0,0,1-.906-.32,6.014,6.014,0,0,1-.821-.448,2.241,2.241,0,0,1-.533-.512.753.753,0,0,1-.139-.426,1.324,1.324,0,0,1,.192-.671,2.464,2.464,0,0,0,.213-1.353,2.276,2.276,0,0,0-.661-1.407,1.619,1.619,0,0,0-.874-.5,3.494,3.494,0,0,0-.98-.085,4.161,4.161,0,0,0-1.1.213A1.012,1.012,0,0,1,32.653,50a1.174,1.174,0,0,1-.533-.48c-.16-.245-.3-.533-.448-.821a4.705,4.705,0,0,1-.3-.927A2.061,2.061,0,0,1,31.321,47a.8.8,0,0,1,.512-.725,3.81,3.81,0,0,0,1.385-1.012,2.377,2.377,0,0,0,.618-1.577,2.253,2.253,0,0,0-.618-1.567,3.717,3.717,0,0,0-1.385-.98.7.7,0,0,1-.373-.373,1.263,1.263,0,0,1-.16-.607,2.739,2.739,0,0,1,.107-.746,7.808,7.808,0,0,1,.266-.8,3.526,3.526,0,0,1,.394-.714,1.469,1.469,0,0,1,.48-.48.585.585,0,0,1,.4-.107,2.758,2.758,0,0,1,.426.107,3.079,3.079,0,0,0,1.62.192,2.6,2.6,0,0,0,1.471-.725,1.786,1.786,0,0,0,.448-.767,4.663,4.663,0,0,0,.181-.885,3.338,3.338,0,0,0,0-.8,4.283,4.283,0,0,0-.075-.512,1.884,1.884,0,0,1-.085-.352.476.476,0,0,1,.032-.352,1.447,1.447,0,0,1,.554-.618,3.56,3.56,0,0,1,.874-.448,4.165,4.165,0,0,1,.906-.266A4.021,4.021,0,0,1,40,31.8a.731.731,0,0,1,.533.213,1.311,1.311,0,0,1,.266.448,3.178,3.178,0,0,0,.927,1.226,2.322,2.322,0,0,0,1.513.533,2.6,2.6,0,0,0,1.6-.5,2.879,2.879,0,0,0,.98-1.279,1.854,1.854,0,0,1,.32-.426.653.653,0,0,1,.448-.213,3.022,3.022,0,0,1,.778.107,4.51,4.51,0,0,1,.831.288,3.253,3.253,0,0,1,.767.458,2.722,2.722,0,0,1,.554.618.6.6,0,0,1,.075.448,1.567,1.567,0,0,1-.107.352,2.717,2.717,0,0,0-.213,1.567,2.55,2.55,0,0,0,.746,1.439,2.282,2.282,0,0,0,1.513.671,3.4,3.4,0,0,0,1.673-.3.763.763,0,0,1,.5-.107.786.786,0,0,1,.5.234,3.081,3.081,0,0,1,.671,1.1,5.919,5.919,0,0,1,.394,1.471.934.934,0,0,1-.139.671.994.994,0,0,1-.4.32,3.016,3.016,0,0,0-1.364.991,2.52,2.52,0,0,0-.565,1.62,2.475,2.475,0,0,0,.48,1.524,2.549,2.549,0,0,0,1.247.938,1.2,1.2,0,0,1,.3.213A.762.762,0,0,1,55.279,46.955ZM43.332,49.278a5.208,5.208,0,0,0,2.185-.448,5.464,5.464,0,0,0,1.79-1.2,5.666,5.666,0,0,0,1.194-1.79,5.5,5.5,0,0,0,.448-2.163,5.077,5.077,0,0,0-.448-2.163,5.679,5.679,0,0,0-1.194-1.78,5.437,5.437,0,0,0-1.79-1.194,5.561,5.561,0,0,0-2.185-.448,5.111,5.111,0,0,0-2.163.448,5.933,5.933,0,0,0-1.78,1.194,5.559,5.559,0,0,0-1.194,1.78,5.5,5.5,0,0,0-.448,2.163,5.111,5.111,0,0,0,.448,2.163,5.852,5.852,0,0,0,1.194,1.79,5.261,5.261,0,0,0,1.78,1.2A5.077,5.077,0,0,0,43.332,49.278Z" transform="translate(-31.3 -31.8)"/>
    </g>
  </g>
</svg>
