<svg xmlns="http://www.w3.org/2000/svg" viewBox="0 0 22 22">
  <defs>
    <style>
      .cls-1 {
        fill: #fff;
      }
    </style>
  </defs>
  <path id="times-circle" class="cls-1" d="M19,8A11,11,0,1,0,30,19,11,11,0,0,0,19,8Zm5.394,13.888a.533.533,0,0,1,0,.754l-1.756,1.752a.533.533,0,0,1-.754,0L19,21.484l-2.888,2.91a.533.533,0,0,1-.754,0l-1.752-1.756a.533.533,0,0,1,0-.754L16.516,19l-2.91-2.888a.533.533,0,0,1,0-.754L15.363,13.6a.533.533,0,0,1,.754,0L19,16.516l2.888-2.91a.533.533,0,0,1,.754,0L24.4,15.363a.533.533,0,0,1,0,.754L21.484,19Z" transform="translate(-8 -8)"/>
</svg>
