<svg xmlns="http://www.w3.org/2000/svg" viewBox="0 0 31.997 25">
  <defs>
    <style>
      .cls-1 {
        fill: #699228;
      }
    </style>
  </defs>
  <path id="exchange-alt" class="cls-1" d="M0,62.977v-1a1.5,1.5,0,0,1,1.5-1.5H24v-3a1.5,1.5,0,0,1,2.56-1.061l5,5a1.5,1.5,0,0,1,0,2.121l-5,5A1.5,1.5,0,0,1,24,67.476v-3H1.5A1.5,1.5,0,0,1,0,62.977Zm30.5,9.5H8v-3a1.5,1.5,0,0,0-2.56-1.061l-5,5a1.5,1.5,0,0,0,0,2.121l5,5A1.5,1.5,0,0,0,8,79.475v-3H30.5a1.5,1.5,0,0,0,1.5-1.5v-1A1.5,1.5,0,0,0,30.5,72.476Z" transform="translate(0 -55.976)"/>
</svg>
