<svg xmlns="http://www.w3.org/2000/svg" xmlns:xlink="http://www.w3.org/1999/xlink" viewBox="0 0 126 42">
  <defs>
    <style>
      .cls-1 {
        fill: #699228;
      }

      .cls-2, .cls-3 {
        fill: #fff;
      }

      .cls-2 {
        font-size: 12px;
        font-family: SegoeUI-Bold, Segoe UI;
        font-weight: 700;
      }

      .cls-4 {
        filter: url(#Rectangle_1536);
      }
    </style>
    <filter id="Rectangle_1536" x="0" y="0" width="126" height="42" filterUnits="userSpaceOnUse">
      <feOffset dy="3" input="SourceAlpha"/>
      <feGaussianBlur stdDeviation="3" result="blur"/>
      <feFlood flood-opacity="0.392"/>
      <feComposite operator="in" in2="blur"/>
      <feComposite in="SourceGraphic"/>
    </filter>
  </defs>
  <g id="Group_176" data-name="Group 176" transform="translate(-1181 -14)">
    <g class="cls-4" transform="matrix(1, 0, 0, 1, 1181, 14)">
      <rect id="Rectangle_1536-2" data-name="Rectangle 1536" class="cls-1" width="108" height="24" rx="5" transform="translate(9 6)"/>
    </g>
    <g id="Group_171" data-name="Group 171" transform="translate(6)">
      <g id="Group_67" data-name="Group 67" transform="translate(1220 24.055)">
        <text id="TRANSFER" class="cls-2" transform="translate(-1 13)"><tspan x="0" y="0">TRANSFER</tspan></text>
      </g>
      <path id="exchange-alt" class="cls-3" d="M0,59.477v-.5a.75.75,0,0,1,.75-.75H12v-1.5a.751.751,0,0,1,1.28-.53l2.5,2.5a.75.75,0,0,1,0,1.061l-2.5,2.5a.751.751,0,0,1-1.28-.53v-1.5H.75A.75.75,0,0,1,0,59.477Zm15.25,4.75H4v-1.5a.751.751,0,0,0-1.28-.53L.22,64.7a.75.75,0,0,0,0,1.061l2.5,2.5A.751.751,0,0,0,4,67.727v-1.5H15.25a.75.75,0,0,0,.75-.75v-.5A.75.75,0,0,0,15.25,64.227Z" transform="translate(1198 -29.976)"/>
    </g>
  </g>
</svg>
