<svg xmlns="http://www.w3.org/2000/svg" viewBox="0 0 25.004 25">
  <defs>
    <style>
      .cls-1 {
        fill: #699228;
      }
    </style>
  </defs>
  <path id="upload" class="cls-1" d="M14.455,18.824H10.548a1.169,1.169,0,0,1-1.172-1.172v-8.2H5.094A.975.975,0,0,1,4.4,7.782L11.833.35a.946.946,0,0,1,1.333,0L20.6,7.782a.975.975,0,0,1-.689,1.665H15.627v8.2A1.169,1.169,0,0,1,14.455,18.824ZM25,18.433V23.9a1.169,1.169,0,0,1-1.172,1.172H1.172A1.169,1.169,0,0,1,0,23.9v-5.47a1.169,1.169,0,0,1,1.172-1.172H7.814v.391a2.737,2.737,0,0,0,2.735,2.735h3.907a2.737,2.737,0,0,0,2.735-2.735v-.391h6.642A1.169,1.169,0,0,1,25,18.433Zm-6.056,4.3a.977.977,0,1,0-.977.977A.98.98,0,0,0,18.948,22.731Zm3.125,0a.977.977,0,1,0-.977.977A.98.98,0,0,0,22.074,22.731Z" transform="translate(0 -0.075)"/>
</svg>
