<svg xmlns="http://www.w3.org/2000/svg" viewBox="0 0 22 25.143">
  <defs>
    <style>
      .cls-1 {
        fill: #535e64;
      }
    </style>
  </defs>
  <g id="user" transform="translate(-767 -21)">
    <path id="user-2" data-name="user" class="cls-1" d="M11,12.571A6.286,6.286,0,1,0,4.714,6.286,6.285,6.285,0,0,0,11,12.571Zm4.4,1.571h-.82a8.548,8.548,0,0,1-7.16,0H6.6a6.6,6.6,0,0,0-6.6,6.6v2.043a2.358,2.358,0,0,0,2.357,2.357H19.643A2.358,2.358,0,0,0,22,22.786V20.743A6.6,6.6,0,0,0,15.4,14.143Z" transform="translate(767 21)"/>
  </g>
</svg>
