<svg xmlns="http://www.w3.org/2000/svg" viewBox="0 0 26.829 25.148">
  <defs>
    <style>
      .cls-1 {
        fill: #699228;
      }
    </style>
  </defs>
  <g id="Vetting_INL" data-name="Vetting INL" transform="translate(-1094 -19)">
    <g id="Group_61" data-name="Group 61" transform="translate(1094 19)">
      <path id="Path_360" data-name="Path 360" class="cls-1" d="M228.758,221.786h8.218c1.084,0,1.084-1.186,0-1.186h-8.218C227.681,220.6,227.681,221.786,228.758,221.786Z" transform="translate(-218.211 -210.942)"/>
      <path id="Path_361" data-name="Path 361" class="cls-1" d="M228.758,302.786h8.218c1.084,0,1.084-1.186,0-1.186h-8.218C227.681,301.6,227.681,302.786,228.758,302.786Z" transform="translate(-218.211 -288.395)"/>
      <path id="Path_362" data-name="Path 362" class="cls-1" d="M228.758,136.086h8.218c1.084,0,1.084-1.186,0-1.186h-8.218C227.681,134.9,227.681,136.086,228.758,136.086Z" transform="translate(-218.211 -128.994)"/>
      <path id="Path_363" data-name="Path 363" class="cls-1" d="M153.79,128.2h-2.335c-.087,0-.155.035-.155.083v1.664c0,.044.068.079.155.079h2.335c.087,0,.155-.035.155-.079v-1.664C153.944,128.235,153.876,128.2,153.79,128.2Z" transform="translate(-146.308 -122.587)"/>
      <path id="Path_364" data-name="Path 364" class="cls-1" d="M151.49,212.6h-2.335c-.081,0-.155.035-.155.083v1.664c0,.044.068.083.155.083h2.335c.087,0,.155-.035.155-.083v-1.664C151.644,212.635,151.576,212.6,151.49,212.6Z" transform="translate(-144.151 -203.292)"/>
      <path id="Path_365" data-name="Path 365" class="cls-1" d="M151.49,294.7h-2.335c-.081,0-.155.039-.155.083v1.664c0,.044.068.079.155.079h2.335c.087,0,.155-.035.155-.079v-1.664C151.644,294.739,151.576,294.7,151.49,294.7Z" transform="translate(-144.151 -281.798)"/>
      <path id="Path_366" data-name="Path 366" class="cls-1" d="M151.49,380h-2.335c-.081,0-.155.035-.155.083v1.664c0,.044.068.083.155.083h2.335c.087,0,.155-.035.155-.083v-1.664C151.644,380.039,151.576,380,151.49,380Z" transform="translate(-144.151 -363.363)"/>
      <path id="Path_367" data-name="Path 367" class="cls-1" d="M333.37,394.127l-1.678-.828-3.728,3.774-1.907-1.362-1.455,1.016,3.635,2.592Z" transform="translate(-308.876 -376.081)"/>
      <path id="Path_368" data-name="Path 368" class="cls-1" d="M94.147,15.262V1.042H90.512V0H74.744V1.042H70.7V22.5H83.563v2.653H97.529V15.262Zm-21.23,5.665V2.614h1.827V3.656H90.518V2.614H91.93V15.262H83.563v1.7H81.247c-1.078,0-1.078,1.186,0,1.186h2.316v2.78Zm23.125,3.179h-11v-7.8h11v7.8Z" transform="translate(-70.7)"/>
    </g>
  </g>
</svg>
