<svg xmlns="http://www.w3.org/2000/svg" viewBox="0 0 30 28.121">
  <defs>
    <style>
      .cls-1 {
        fill: #535e64;
      }
    </style>
  </defs>
  <g id="Vetting_INL" data-name="Vetting INL" transform="translate(-1094 -19)">
    <g id="Group_61" data-name="Group 61" transform="translate(1094 19)">
      <path id="Path_360" data-name="Path 360" class="cls-1" d="M228.854,221.927h9.19c1.212,0,1.212-1.327,0-1.327h-9.19C227.649,220.6,227.649,221.927,228.854,221.927Z" transform="translate(-217.06 -209.8)"/>
      <path id="Path_361" data-name="Path 361" class="cls-1" d="M228.854,302.927h9.19c1.212,0,1.212-1.327,0-1.327h-9.19C227.649,301.6,227.649,302.927,228.854,302.927Z" transform="translate(-217.06 -286.835)"/>
      <path id="Path_362" data-name="Path 362" class="cls-1" d="M228.854,136.227h9.19c1.212,0,1.212-1.327,0-1.327h-9.19C227.649,134.9,227.649,136.227,228.854,136.227Z" transform="translate(-217.06 -128.296)"/>
      <path id="Path_363" data-name="Path 363" class="cls-1" d="M154.084,128.2h-2.611c-.1,0-.173.039-.173.093v1.86c0,.049.076.088.173.088h2.611c.1,0,.173-.039.173-.088v-1.86C154.257,128.239,154.181,128.2,154.084,128.2Z" transform="translate(-145.718 -121.924)"/>
      <path id="Path_364" data-name="Path 364" class="cls-1" d="M151.784,212.6h-2.611c-.09,0-.173.039-.173.093v1.86c0,.049.076.093.173.093h2.611c.1,0,.173-.039.173-.093v-1.86C151.957,212.639,151.881,212.6,151.784,212.6Z" transform="translate(-143.578 -202.192)"/>
      <path id="Path_365" data-name="Path 365" class="cls-1" d="M151.784,294.7h-2.611c-.09,0-.173.044-.173.093v1.86c0,.049.076.088.173.088h2.611c.1,0,.173-.039.173-.088v-1.86C151.957,294.744,151.881,294.7,151.784,294.7Z" transform="translate(-143.578 -280.272)"/>
      <path id="Path_366" data-name="Path 366" class="cls-1" d="M151.784,380h-2.611c-.09,0-.173.039-.173.093v1.86c0,.049.076.093.173.093h2.611c.1,0,.173-.039.173-.093v-1.86C151.957,380.044,151.881,380,151.784,380Z" transform="translate(-143.578 -361.396)"/>
      <path id="Path_367" data-name="Path 367" class="cls-1" d="M334.406,394.225l-1.877-.925-4.169,4.22L326.227,396l-1.627,1.136,4.065,2.9Z" transform="translate(-307.017 -374.045)"/>
      <path id="Path_368" data-name="Path 368" class="cls-1" d="M96.919,17.067V1.165H92.854V0H75.222V1.165H70.7V25.154H85.084v2.967H100.7V17.067ZM73.179,23.4V2.923h2.043V4.088H92.861V2.923H94.44V17.067H85.084v1.9h-2.59c-1.2,0-1.2,1.327,0,1.327h2.59V23.4Zm25.859,3.554h-12.3V18.237h12.3v8.719Z" transform="translate(-70.7)"/>
    </g>
  </g>
</svg>
