<svg xmlns="http://www.w3.org/2000/svg" viewBox="0 0 13.241 12.412">
  <defs>
    <style>
      .cls-1 {
        fill: #fff;
      }
    </style>
  </defs>
  <g id="Vetting_INL" data-name="Vetting INL" transform="translate(-1094 -19)">
    <g id="Group_61" data-name="Group 61" transform="translate(1094 19)">
      <path id="Path_360" data-name="Path 360" class="cls-1" d="M228.349,221.186h4.056c.535,0,.535-.586,0-.586h-4.056C227.817,220.6,227.817,221.186,228.349,221.186Z" transform="translate(-223.144 -215.833)"/>
      <path id="Path_361" data-name="Path 361" class="cls-1" d="M228.349,302.186h4.056c.535,0,.535-.586,0-.586h-4.056C227.817,301.6,227.817,302.186,228.349,302.186Z" transform="translate(-223.144 -295.083)"/>
      <path id="Path_362" data-name="Path 362" class="cls-1" d="M228.349,135.486h4.056c.535,0,.535-.586,0-.586h-4.056C227.817,134.9,227.817,135.486,228.349,135.486Z" transform="translate(-223.144 -131.985)"/>
      <path id="Path_363" data-name="Path 363" class="cls-1" d="M152.529,128.2h-1.152c-.043,0-.076.017-.076.041v.821c0,.022.034.039.076.039h1.152c.043,0,.076-.017.076-.039v-.821C152.605,128.217,152.572,128.2,152.529,128.2Z" transform="translate(-148.836 -125.43)"/>
      <path id="Path_364" data-name="Path 364" class="cls-1" d="M150.229,212.6h-1.152c-.04,0-.076.017-.076.041v.821c0,.022.034.041.076.041h1.152c.043,0,.076-.017.076-.041v-.821C150.305,212.617,150.272,212.6,150.229,212.6Z" transform="translate(-146.607 -208.006)"/>
      <path id="Path_365" data-name="Path 365" class="cls-1" d="M150.229,294.7h-1.152c-.04,0-.076.019-.076.041v.821c0,.022.034.039.076.039h1.152c.043,0,.076-.017.076-.039v-.821C150.305,294.719,150.272,294.7,150.229,294.7Z" transform="translate(-146.607 -288.332)"/>
      <path id="Path_366" data-name="Path 366" class="cls-1" d="M150.229,380h-1.152c-.04,0-.076.017-.076.041v.821c0,.022.034.041.076.041h1.152c.043,0,.076-.017.076-.041v-.821C150.305,380.019,150.272,380,150.229,380Z" transform="translate(-146.607 -371.789)"/>
      <path id="Path_367" data-name="Path 367" class="cls-1" d="M328.928,393.708l-.828-.408-1.84,1.863-.941-.672-.718.5,1.794,1.279Z" transform="translate(-316.839 -384.801)"/>
      <path id="Path_368" data-name="Path 368" class="cls-1" d="M82.272,7.533V.514H80.478V0H72.7V.514h-2V11.1h6.349v1.309h6.893V7.533Zm-10.478,2.8V1.29h.9V1.8h7.785V1.29h.7V7.533H77.049v.838H75.905c-.532,0-.532.586,0,.586h1.143v1.372ZM83.208,11.9H77.779V8.049h5.429V11.9Z" transform="translate(-70.7)"/>
    </g>
  </g>
</svg>
